<?xml version="1.0" encoding="UTF-8" standalone="no"?>
<svg xmlns="http://www.w3.org/2000/svg"><symbol id="dx-apply" viewBox="0 0 16 16"><path fill-rule="evenodd" clip-rule="evenodd" d="m15.409 3.414-9.96 9.959L.5 8.423l1.5-1.5 3.536 3.536L13.994 2l1.415 1.414Z"/></symbol><symbol id="dx-arrow-down" viewBox="0 0 17 16"><path fill-rule="evenodd" clip-rule="evenodd" d="M9.002 10V1h-2v9h-3l4 5 4-5h-3Z"/></symbol><symbol id="dx-arrow-up" viewBox="0 0 17 16"><path fill-rule="evenodd" clip-rule="evenodd" d="M9.002 6v9h-2V6h-3l4-5 4 5h-3Z"/></symbol><symbol id="dx-back" viewBox="0 0 16 16"><g clip-path="url(#clip0_85_294)"><path d="M16 6.99v2.02H3.879l5.555 5.556L8 16 0 8l8-8 1.434 1.434L3.88 6.99H16Z"/></g><defs><clipPath id="clip0_85_294"><rect width="16" height="16"/></clipPath></defs></symbol><symbol id="dx-cancel" viewBox="0 0 16 16"><path fill-rule="evenodd" clip-rule="evenodd" d="M14 12.5 12.5 14 8 9.5 3.5 14 2 12.5 6.5 8 2 3.5 3.5 2 8 6.5 12.5 2 14 3.5 9.5 8l4.5 4.5Z"/></symbol><symbol id="dx-caret-down" viewBox="0 0 16 16"><path fill-rule="evenodd" clip-rule="evenodd" d="m3 6 5 5 5-5H3Z"/></symbol><symbol id="dx-caret-up" viewBox="0 0 16 16"><path fill-rule="evenodd" clip-rule="evenodd" d="m3 10 5-5 5 5H3Z"/></symbol><symbol id="dx-chevron-double-left" viewBox="0 0 16 16"><path d="m7 15 1.5-1.5L3 8l5.5-5.5L7 1 0 8l7 7Z"/><path d="m13.5 15 1.5-1.5L9.5 8 15 2.5 13.5 1l-7 7 7 7Z"/></symbol><symbol id="dx-chevron-double-right" viewBox="0 0 16 16"><path d="m9 15-1.5-1.5L13 8 7.5 2.5 9 1l7 7-7 7Z"/><path d="M2.5 15 1 13.5 6.5 8 1 2.5 2.5 1l7 7-7 7Z"/></symbol><symbol id="dx-chevron-down-small" viewBox="0 0 16 16"><path d="M4.429 5.786 3 7.214l5 5 5-5-1.429-1.428L8 9.357 4.429 5.786Z"/></symbol><symbol id="dx-chevron-down" viewBox="0 0 16 16"><path fill-rule="evenodd" clip-rule="evenodd" d="M2.5 4 1 5.5l7 7 7-7L13.5 4 8 9.5 2.5 4Z"/></symbol><symbol id="dx-chevron-left-small" viewBox="0 0 16 16"><path d="M10.429 4.429 9 3 4 8l5 5 1.429-1.429L6.857 8l3.572-3.571Z"/></symbol><symbol id="dx-chevron-left" viewBox="0 0 16 16"><path fill-rule="evenodd" clip-rule="evenodd" d="M12 13.5 10.5 15l-7-7 7-7L12 2.5 6.5 8l5.5 5.5Z"/></symbol><symbol id="dx-chevron-right-small" viewBox="0 0 16 16"><path d="M5 4.429 6.429 3l5 5-5 5L5 11.571 8.571 8 5 4.429Z"/></symbol><symbol id="dx-chevron-right" viewBox="0 0 16 16"><path fill-rule="evenodd" clip-rule="evenodd" d="M4 13.5 5.5 15l7-7-7-7L4 2.5 9.5 8 4 13.5Z"/></symbol><symbol id="dx-chevron-up-small" viewBox="0 0 16 16"><path d="M11.571 10.214 13 8.786l-5-5-5 5 1.429 1.428L8 6.643l3.571 3.571Z"/></symbol><symbol id="dx-chevron-up" viewBox="0 0 16 16"><path fill-rule="evenodd" clip-rule="evenodd" d="M2.5 12 1 10.5l7-7 7 7-1.5 1.5L8 6.5 2.5 12Z"/></symbol><symbol id="dx-close" viewBox="0 0 16 16"><path fill-rule="evenodd" clip-rule="evenodd" d="M13 11.51 11.51 13 8 9.487 4.49 13 3 11.51 6.51 8 3 4.49l1.49-1.49L8 6.51 11.51 3 13 4.489l-3.51 3.51L13 11.51Z"/></symbol><symbol id="dx-column-chooser-button" viewBox="0 0 16 16"><path fill-rule="evenodd" clip-rule="evenodd" d="M11.5 1.5h-9c-.6 0-1 .4-1 1v9c0 .6.4 1 1 1h9c.6 0 1-.4 1-1v-9c0-.6-.4-1-1-1Zm0 10h-9v-7h9v7Zm0-8h-9v-1h9v1Z"/><path opacity="0.5" d="M13.5 3.5h-1v1h1v9h-9v-1h-1v1c0 .6.4 1 1 1h9c.6 0 1-.4 1-1v-9c0-.6-.4-1-1-1Z"/><path opacity="0.5" d="M10.5 5.5h-7v5h7v-5Zm-1 4h-5v-1h5v1Zm0-2h-5v-1h5v1Z"/></symbol><symbol id="dx-column-chooser-drag-lock" viewBox="0 0 16 16"><path fill-rule="evenodd" clip-rule="evenodd" d="M14 8c0-2-2-2-2-2s0-4-4-4-4 4-4 4-2 0-2 2v4c0 2 2 2 2 2h8s2 0 2-2V8ZM8 4c2 0 2 2 2 2H6s0-2 2-2Z"/></symbol><symbol id="dx-column-chooser-drag" viewBox="0 0 16 16"><path fill-rule="evenodd" clip-rule="evenodd" d="M9 15v-2h2v2H9Zm0-6h2v2H9V9Zm0-4h2v2H9V5Zm0-4h2v2H9V1ZM5 13h2v2H5v-2Zm0-4h2v2H5V9Zm0-4h2v2H5V5Zm0-4h2v2H5V1Z"/></symbol><symbol id="dx-data-not-found" viewBox="0 0 48 48"><path d="M29.07 16.1c.708-.707 1.769-1.06 2.83 0 1.06 1.061.706 2.122 0 2.829l-3.536 3.535L31.899 26c.707.707 1.061 1.768 0 2.828-1.06 1.06-2.121.707-2.828 0l-3.536-3.535L22 28.828c-.707.707-1.768 1.061-2.828 0-1.061-1.06-.708-2.121 0-2.828l3.535-3.536-3.535-3.535c-.708-.707-1.061-1.768 0-2.829 1.06-1.06 2.12-.707 2.828 0l3.535 3.536 3.536-3.535Z"/><path fill-rule="evenodd" clip-rule="evenodd" d="M15.719 35.11c6.34 4.996 15.246 4.552 21.13-1.332 6.364-6.364 6.364-16.263 0-22.627-6.364-6.364-16.263-6.364-22.627 0-5.884 5.884-6.328 14.79-1.332 21.13l-5.74 5.74a2 2 0 1 0 2.83 2.828l5.739-5.74Zm18.302-4.16c-4.394 4.393-12.577 4.393-16.97 0-4.394-4.394-4.394-12.577 0-16.97 4.393-4.394 12.576-4.394 16.97 0 4.393 4.393 4.393 12.576 0 16.97Z"/></symbol><symbol id="dx-drop-file" viewBox="0 0 49 48"><path d="M26.002 29h5l-7-7-7 7h5v8h4v-8Z"/><path fill-rule="evenodd" clip-rule="evenodd" d="M7.002 41c0 2.2 1.8 4 4 4h26c2.2 0 4-1.8 4-4V14l-11-11h-19c-2.2 0-4 1.8-4 4v34Zm23-27V7l7 7h-7Zm-4 4h11v23h-26V7h15v11Z"/></symbol><symbol id="dx-editor-calendar" viewBox="0 0 17 16"><path fill-rule="evenodd" clip-rule="evenodd" d="M4 0a1 1 0 0 0-1 1v1a2 2 0 0 0-2 2v10a2 2 0 0 0 2 2h10a2 2 0 0 0 2-2V4a2 2 0 0 0-2-2V1a1 1 0 1 0-2 0v1H5V1a1 1 0 0 0-1-1Zm1 14v-2H3v2h2Zm0-6v2H3V8h2Zm4 4H7v2h2v-2ZM7 8h2v2H7V8Zm6 6v-2h-2v2h2Zm0-6v2h-2V8h2ZM4 4a1 1 0 0 0-1 1v1h10V5a1 1 0 0 0-1-1H4Z"/></symbol><symbol id="dx-editor-check" viewBox="0 0 16 16"><path fill-rule="evenodd" clip-rule="evenodd" d="m15.409 3.414-9.96 9.959L.5 8.423l1.5-1.5 3.536 3.536L13.994 2l1.415 1.414Z"/></symbol><symbol id="dx-editor-clear" viewBox="0 0 16 16"><path fill-rule="evenodd" clip-rule="evenodd" d="m12.7 11.3-1.4 1.4L8 9.4l-3.3 3.3-1.4-1.4L6.6 8 3.3 4.7l1.4-1.4L8 6.6l3.3-3.3 1.4 1.4L9.4 8l3.3 3.3Z"/></symbol><symbol id="dx-editor-clock" viewBox="0 0 17 16"><path d="M7.003 4a1 1 0 0 1 2 0v3h2a1 1 0 1 1 0 2h-3a1 1 0 0 1-1-1V4Z"/><path fill-rule="evenodd" clip-rule="evenodd" d="M8.002 16a8 8 0 1 0 0-16 8 8 0 0 0 0 16Zm0-2a6 6 0 1 0 0-12 6 6 0 0 0 0 12Z"/></symbol><symbol id="dx-editor-remove-tag" viewBox="0 0 16 16"><path d="M12 5.3 10.7 4 8 6.7 5.3 4 4 5.3 6.7 8 4 10.7 5.3 12 8 9.3l2.7 2.7 1.3-1.3L9.3 8 12 5.3Z"/></symbol><symbol id="dx-funnel-filled" viewBox="0 0 16 16"><path fill-rule="evenodd" clip-rule="evenodd" d="M13 1a1 1 0 0 1 1 1v3l-3.75 3v7l-4.5-1.5V8L2 5V2a1 1 0 0 1 1-1h10Z"/></symbol><symbol id="dx-funnel" viewBox="0 0 16 16"><path fill-rule="evenodd" clip-rule="evenodd" d="M13 1a1 1 0 0 1 1 1v3l-3.75 3v7l-4.5-1.5V8L2 5V2a1 1 0 0 1 1-1h10ZM3.5 4l3.75 3v5.5l1.5.5V7l3.75-3V2.5h-9V4Z"/></symbol><symbol id="dx-hamburger" viewBox="0 0 16 16"><path d="M16 3H0v2h16V3Z"/><path d="M16 7H0v2h16V7Z"/><path d="M0 11h16v2H0v-2Z"/></symbol><symbol id="dx-he-align-center" viewBox="0 0 16 16"><g clip-path="url(#clip0_1133_23457)"><path d="M0 0h16v2H0V0Zm3 3.5h10v2H3v-2ZM0 7h16v2H0V7Zm3 3.5h10v2H3v-2ZM0 14h16v2H0v-2Z"/></g><defs><clipPath id="clip0_1133_23457"><rect width="16" height="16"/></clipPath></defs></symbol><symbol id="dx-he-align-justify" viewBox="0 0 16 16"><g clip-path="url(#clip0_1133_23525)"><path d="M0 0h16v2H0V0Zm0 3.5h16v2H0v-2ZM0 7h16v2H0V7Zm0 3.5h16v2H0v-2ZM0 14h16v2H0v-2Z"/></g><defs><clipPath id="clip0_1133_23525"><rect width="16" height="16"/></clipPath></defs></symbol><symbol id="dx-he-align-left" viewBox="0 0 16 16"><g clip-path="url(#clip0_1133_23462)"><path d="M0 0h16v2H0V0Zm0 3.5h10v2H0v-2ZM0 7h16v2H0V7Zm0 3.5h10v2H0v-2ZM0 14h16v2H0v-2Z"/></g><defs><clipPath id="clip0_1133_23462"><rect width="16" height="16"/></clipPath></defs></symbol><symbol id="dx-he-align-right" viewBox="0 0 16 16"><g clip-path="url(#clip0_1133_23447)"><path d="M0 0h16v2H0V0Zm6 3.5h10v2H6v-2ZM0 7h16v2H0V7Zm6 3.5h10v2H6v-2ZM0 14h16v2H0v-2Z"/></g><defs><clipPath id="clip0_1133_23447"><rect width="16" height="16"/></clipPath></defs></symbol><symbol id="dx-he-blockqoute" viewBox="0 0 16 16"><path d="M4.4 3c1.325 0 2.4 1.12 2.4 2.5 0 2.5-3 7.5-3 7.5H2s1.8-3.125 2.4-5C3.075 8 2 6.88 2 5.5S3.075 3 4.4 3Z"/><path d="M11.6 3C12.925 3 14 4.12 14 5.5 14 8 11 13 11 13H9.2s1.8-3.125 2.4-5c-1.325 0-2.4-1.12-2.4-2.5S10.275 3 11.6 3Z"/></symbol><symbol id="dx-he-bold" viewBox="0 0 16 16"><path d="M12.2 7.76c1.263-.766 2.149-2.023 2.149-3.189C14.349 1.99 12.069 0 9.139 0H1v16h9.168C12.89 16 15 14.057 15 11.669c0-1.738-1.12-3.223-2.8-3.909ZM4.907 2.857h3.907c1.08 0 1.953.766 1.953 1.714 0 .949-.872 1.715-1.953 1.715H4.907V2.857Zm4.558 10.286H4.907V9.714h4.558c1.081 0 1.954.766 1.954 1.715 0 .948-.873 1.714-1.954 1.714Z"/></symbol><symbol id="dx-he-clear-formatting" viewBox="0 0 16 16"><path d="M14.5 7 12 10l-1.625 1.857-5.949-5.086L6 5l2.5-3c.689-.83 1.68-1.196 2.5-.5l3.5 3c1 1 .5 2 0 2.5Z"/><path d="m3.762 7.518 5.954 5.092L8.5 14c-1.5 1.5-3.5 1.5-5 0L2 12.5c-.754-.757-1.11-1.883 0-3l1.762-1.982Z"/></symbol><symbol id="dx-he-close-lock" viewBox="0 0 16 16"><path fill-rule="evenodd" clip-rule="evenodd" d="M14 8c0-2-2-2-2-2s0-4-4-4-4 4-4 4-2 0-2 2v4c0 2 2 2 2 2h8s2 0 2-2V8ZM8 4c2 0 2 2 2 2H6s0-2 2-2Z"/></symbol><symbol id="dx-he-code-block" viewBox="0 0 16 16"><path d="M10 2H8.5l-3 12H7l3-12Z"/><path d="m3.5 4 1 1-2.65 3 2.65 3-1 1L0 8l3.5-4Z"/><path d="m12.5 4-1 1 2.7 3-2.7 3 1 1L16 8l-3.5-4Z"/></symbol><symbol id="dx-he-delete-table-columns" viewBox="0 0 16 16"><g clip-path="url(#clip0_1488_6117)"><path d="M13 5h-3v3h3V5Z"/><path d="M13 0h-3v3h3V0Z"/><path d="M3 10H0v3h3v-3Z"/><path d="M3 5H0v3h3V5Z"/><path d="M3 0H0v3h3V0Z"/><path d="M8 0H5v13h3V0Z"/><path d="M14.886 16 16 14.886 14.114 13 16 11.114 14.886 10 13 11.886 11.114 10 10 11.114 11.886 13 10 14.886 11.114 16 13 14.114 14.886 16Z"/></g><defs><clipPath id="clip0_1488_6117"><rect width="16" height="16"/></clipPath></defs></symbol><symbol id="dx-he-delete-table-rows" viewBox="0 0 16 16"><g clip-path="url(#clip0_1488_6113)"><path d="M13 0h-3v3h3V0Z"/><path d="M8 10H5v3h3v-3Z"/><path d="M8 0H5v3h3V0Z"/><path d="M3 10H0v3h3v-3Z"/><path d="M3 0H0v3h3V0Z"/><path d="M13 5H0v3h13V5Z"/><path d="M14.886 16 16 14.886 14.114 13 16 11.114 14.886 10 13 11.886 11.114 10 10 11.114 11.886 13 10 14.886 11.114 16 13 14.114 14.886 16Z"/></g><defs><clipPath id="clip0_1488_6113"><rect width="16" height="16"/></clipPath></defs></symbol><symbol id="dx-he-delete-table" viewBox="0 0 16 16"><g clip-path="url(#clip0_1488_6121)"><path d="M13 5h-3v3h3V5Z"/><path d="M13 0h-3v3h3V0Z"/><path d="M8 10H5v3h3v-3Z"/><path d="M8 5H5v3h3V5Z"/><path d="M8 0H5v3h3V0Z"/><path d="M3 10H0v3h3v-3Z"/><path d="M3 5H0v3h3V5Z"/><path d="M3 0H0v3h3V0Z"/><path d="M14.886 16 16 14.886 14.114 13 16 11.114 14.886 10 13 11.886 11.114 10 10 11.114 11.886 13 10 14.886 11.114 16 13 14.114 14.886 16Z"/></g><defs><clipPath id="clip0_1488_6121"><rect width="16" height="16"/></clipPath></defs></symbol><symbol id="dx-he-font-color" viewBox="0 0 16 16"><path d="M2 14h2.215l1.2-3.343h5.17l1.2 3.343H14L9.108 1H6.8L2 14Zm4.062-5.2 1.846-5.386H8L9.846 8.8H6.062Z"/></symbol><symbol id="dx-he-header" viewBox="0 0 16 16"><path d="M2.5 0H5v7h6V0h2.5v16H11V9.5H5V16H2.5V0Z"/></symbol><symbol id="dx-he-highlight" viewBox="0 0 16 16"><path d="m0 15 2.791-2.81a1.583 1.583 0 0 1 0-2.208L6.58 6.068l4.387 4.416-3.788 3.914c-.599.602-1.496.602-2.094 0L4.287 15H0ZM11.165 1.452a1.557 1.557 0 0 1 2.193 0l2.193 2.208a1.583 1.583 0 0 1 0 2.207L12.162 9.28 7.776 4.864l3.39-3.412Z"/></symbol><symbol id="dx-he-hyperlink" viewBox="0 0 16 16"><path d="M4.444 3h2.667v1.846H4.444c-1.51 0-2.666 1.2-2.666 2.77 0 1.569 1.155 2.769 2.666 2.769h2.667v1.846H4.444C1.956 12.23 0 10.2 0 7.615 0 5.031 1.956 3 4.444 3Zm7.112 0C14.044 3 16 5.03 16 7.615h-1.778c0-1.569-1.155-2.769-2.666-2.769H8.889V3h2.667ZM5.333 6.692h5.334v1.846H5.333V6.692Zm6.223.923h1.777v2.77H16v1.846h-2.667V15h-1.777v-2.77H8.889v-1.845h2.667v-2.77Z"/></symbol><symbol id="dx-he-indent-decrease" viewBox="0 0 16 16"><g clip-path="url(#clip0_1488_6156)"><path d="M8 9h8V7H8m0-1.5h8v-2H8M0 0v2h16V0M0 16h16v-2H0m0-6 4 4V4m4 8.5h8v-2H8v2Z"/></g><defs><clipPath id="clip0_1488_6156"><rect width="16" height="16"/></clipPath></defs></symbol><symbol id="dx-he-indent-increase" viewBox="0 0 16 16"><g clip-path="url(#clip0_1488_6159)"><path d="M8 7H0v2h8m0-5.5H0v2h8M0 0v2h16V0m0 14H0v2h16M12 4v8l4-4m-8 2.5H0v2h8v-2Z"/></g><defs><clipPath id="clip0_1488_6159"><rect width="16" height="16"/></clipPath></defs></symbol><symbol id="dx-he-insert-image" viewBox="0 0 16 16"><path d="M12 5.5a1.5 1.5 0 1 1-3 0 1.5 1.5 0 0 1 3 0Z"/><path d="M5 7 3 9v3h7L5 7Z"/><path d="m10 9 3 3h-2l-2-2 1-1Z"/><path fill-rule="evenodd" clip-rule="evenodd" d="M0 3a2 2 0 0 1 2-2h12a2 2 0 0 1 2 2v10a2 2 0 0 1-2 2H2a2 2 0 0 1-2-2V3Zm2 0h12v10H2V3Z"/></symbol><symbol id="dx-he-insert-table-caption" viewBox="0 0 16 16"><path d="M6.75 14.25v-2.5h2.5v2.5h-2.5Zm0-5v-2.5h2.5v2.5h-2.5Zm-5 5v-2.5h2.5v2.5h-2.5Zm0-5v-2.5h2.5v2.5h-2.5Zm10 5v-2.5h2.5v2.5h-2.5Zm0-5v-2.5h2.5v2.5h-2.5Z" stroke="black" stroke-width="0.5"/><path d="M14.5 2.5a1 1 0 0 0-1-1h-11a1 1 0 0 0-1 1v2h13v-2Z"/></symbol><symbol id="dx-he-insert-table-columns-to-the-left" viewBox="0 0 16 16"><path d="M16 1.5h-3v3h3v-3Z"/><path d="M6 11.5H3v3h3v-3Z"/><path d="M6 1.5H3v3h3v-3Z"/><path d="M16 11.5h-3v3h3v-3Z"/><path d="M16 6.5h-3v3h3v-3Z"/><path d="M8 1.5h3v13H8v-13Z"/><path d="M4.333 7.167H6v1.666H4.333V10.5L1 8l3.333-2.5v1.667Z"/></symbol><symbol id="dx-he-insert-table-columns-to-the-right" viewBox="0 0 16 16"><path d="M13 1.5h-3v3h3v-3Z"/><path d="M3 11.5H0v3h3v-3Z"/><path d="M3 1.5H0v3h3v-3Z"/><path d="M13 11.5h-3v3h3v-3Z"/><path d="M3 1.5H0v3h3v-3Z"/><path d="M3 6.5H0v3h3v-3Z"/><path d="M8 1.5H5v13h3v-13Z"/><path d="M10 8.833h1.667V10.5L15 8l-3.333-2.5v1.667H10v1.666Z"/></symbol><symbol id="dx-he-insert-table-rows-above" viewBox="0 0 16 16"><path d="M14.5 3h-3v3h3V3Z"/><path d="M9.5 13h-3v3h3v-3Z"/><path d="M4.5 13h-3v3h3v-3Z"/><path d="M4.5 3h-3v3h3V3Z"/><path d="M14.5 13h-3v3h3v-3Z"/><path d="M8.833 6V4.333H10.5L8 1 5.5 4.333h1.667V6h1.666Z"/><path d="M1.5 11V8h13v3h-13Z"/></symbol><symbol id="dx-he-insert-table-rows-below" viewBox="0 0 16 16"><g clip-path="url(#clip0_1488_6132)"><path d="M14.5 0h-3v3h3V0Z"/><path d="M9.5 0h-3v3h3V0Z"/><path d="M4.5 10h-3v3h3v-3Z"/><path d="M4.5 0h-3v3h3V0Z"/><path d="M14.5 10h-3v3h3v-3Z"/><path d="M1.5 5h13v3h-13V5Z"/><path d="M7.167 11.667V10h1.666v1.667H10.5L8 15l-2.5-3.333h1.667Z"/></g><defs><clipPath id="clip0_1488_6132"><rect width="16" height="16"/></clipPath></defs></symbol><symbol id="dx-he-insert-table" viewBox="0 0 16 16"><path d="M11.5 1.5h3v3h-3v-3Z"/><path d="M6.5 11.5h3v3h-3v-3Z"/><path d="M9.5 1.5h-3v3h3v-3Z"/><path d="M1.5 11.5h3v3h-3v-3Z"/><path d="M4.5 1.5h-3v3h3v-3Z"/><path d="M11.5 11.5h3v3h-3v-3Z"/><path d="M4.5 6.5h-3v3h3v-3Z"/><path d="M9.5 6.5h-3v3h3v-3Z"/><path d="M11.5 6.5h3v3h-3v-3Z"/></symbol><symbol id="dx-he-italic" viewBox="0 0 16 16"><path d="M6 1v2h2.2L4.8 13H2v2h8v-2H7.8l3.4-10H14V1H6Z"/></symbol><symbol id="dx-he-list-bullets" viewBox="0 0 16 16"><g clip-path="url(#clip0_1488_6187)"><path fill-rule="evenodd" clip-rule="evenodd" d="M6 15v-2h10v2H6Zm0-8h10v2H6V7Zm0-6h10v2H6V1ZM2 16c-1.1 0-2-.9-2-2s.9-2 2-2 2 .9 2 2-.9 2-2 2Zm0-6c-1.1 0-2-.9-2-2s.9-2 2-2 2 .9 2 2-.9 2-2 2Zm0-6C.9 4 0 3.1 0 2s.9-2 2-2 2 .9 2 2-.9 2-2 2Z"/></g><defs><clipPath id="clip0_1488_6187"><rect width="16" height="16"/></clipPath></defs></symbol><symbol id="dx-he-list-numbers" viewBox="0 0 16 16"><g clip-path="url(#clip0_1488_6184)"><path fill-rule="evenodd" clip-rule="evenodd" d="M5 15v-2h11v2H5Zm0-8h11v2H5V7Zm0-6h11v2H5V1ZM1 4V1H0V0h2v4H1Zm-1 9v-1h3v4H0v-1h2v-.5H1v-1h1V13H0Zm2.3-7c.4 0 .7.3.7.8 0 .2-.1.3-.2.5L1.1 9H3v1H0v-.9L2 7H0V6h2.3Z"/></g><defs><clipPath id="clip0_1488_6184"><rect width="16" height="16"/></clipPath></defs></symbol><symbol id="dx-he-open-lock" viewBox="0 0 16 16"><path fill-rule="evenodd" clip-rule="evenodd" d="M14 8c0-2-2-2-2-2H4S2 6 2 8v4c0 2 2 2 2 2h8s2 0 2-2V8Z"/><path fill-rule="evenodd" clip-rule="evenodd" d="M8 0C4 0 4 4 4 4v2h2V4s0-2 2-2 2 2 2 2h2s0-4-4-4Z"/></symbol><symbol id="dx-he-redo" viewBox="0 0 16 16"><path d="M0 12a7.505 7.505 0 0 1 7.491-7c2.073 0 3.95.84 5.309 2.197L16 4v8H7.992l3.392-3.39A5.491 5.491 0 0 0 7.491 7a5.504 5.504 0 0 0-5.483 5H0Z"/></symbol><symbol id="dx-he-strikeout" viewBox="0 0 16 16"><path d="M14 7H9s-1.6-.1-2.5-.9c-.8-.8-.8-1.9-.5-2.3.2-.3.5-.7 1.5-.9 1-.2 3.2.2 4.1.7V1.5c-.7-.3-1.8-.5-3.2-.5C5.1 1 4 2.6 3.7 3c-1.1 1.7 0 3.6.3 4-.1-.1.1.1 0 0H2v2h5c-.1 0 .1 0 0 0 .9.1 2.8.7 2.8 2.3 0 .6-.3 1.1-.7 1.4-.4.3-1.2.4-2.2.4-1.6 0-3.5-1-3.7-1.2v2.3c.2.1 1.6.8 3.8.8 2.2 0 3.2-.5 3.7-.8.5-.3 1.5-1.1 1.5-2.9 0-1.5-.9-2-1.2-2.3-.1-.1.1.1 0 0h3V7Z"/></symbol><symbol id="dx-he-subscript" viewBox="0 0 16 16"><g clip-path="url(#clip0_1488_6171)"><path d="M10 2H7.5L5 6.5 2.5 2H0l3.5 6L0 14h2.5L5 9.5 7.5 14H10L6.5 8 10 2Zm3.587 12.886.625-.429c.447-.343.805-.771 1.162-1.2.358-.428.447-.857.447-1.286 0-.514-.178-1.028-.536-1.371-.358-.343-.894-.514-1.609-.6-.447 0-.805.086-1.162.171-.358.086-.626.258-.894.429l.447 1.029.626-.343c.268-.086.447-.172.804-.172.358 0 .626.086.805.257.178.172.268.343.268.6 0 .343-.179.686-.537 1.029-.357.343-.893.857-1.519 1.371l-.983.772V16H16v-1.114h-2.413Z"/></g><defs><clipPath id="clip0_1488_6171"><rect width="16" height="16"/></clipPath></defs></symbol><symbol id="dx-he-superscript" viewBox="0 0 16 16"><path d="m13.587 4.886.625-.429c.447-.343.805-.771 1.162-1.2.358-.428.447-.857.447-1.286 0-.514-.179-1.028-.536-1.371-.358-.343-.894-.514-1.609-.6-.447 0-.805.086-1.162.171-.358.086-.626.258-.894.429l.447 1.029.626-.343c.268-.086.447-.172.804-.172.358 0 .626.086.805.257.178.172.268.343.268.6 0 .343-.179.686-.537 1.029-.357.343-.893.857-1.52 1.371l-.982.772V6H16V4.886h-2.413Z"/><path d="M7.5 2H10L6.5 8l3.5 6H7.5L5 9.5 2.5 14H0l3.5-6L0 2h2.5L5 6.5 7.5 2Z"/></symbol><symbol id="dx-he-underline" viewBox="0 0 16 16"><path d="M2 16h12v-2H2v2Zm6-4c2.829 0 5-2.067 5-5V1h-2v6c0 1.689-1.371 3-3 3S5 8.689 5 7V1H3v6c0 2.933 2.171 5 5 5Z"/></symbol><symbol id="dx-he-undo" viewBox="0 0 16 16"><path d="M16 12a7.505 7.505 0 0 0-7.491-7c-2.073 0-3.95.84-5.309 2.197L0 4v8h8.008L4.616 8.61A5.491 5.491 0 0 1 8.509 7a5.504 5.504 0 0 1 5.483 5H16Z"/></symbol><symbol id="dx-he-variable" viewBox="0 0 16 16"><path fill-rule="evenodd" clip-rule="evenodd" d="M6.76 10.46h1.681L8.031 13h1.293l.41-2.54H11.5V9.09H9.953l.35-2.18H11.5V5.555h-.98L10.933 3H9.638l-.41 2.554H7.546L7.957 3H6.665l-.411 2.554H4.5v1.357h1.535l-.35 2.178H4.5v1.371h.967L5.057 13H6.35l.41-2.54ZM8.66 9.09h-1.68l.35-2.18h1.68l-.35 2.18Z"/><path d="m2.5 5 1 1-1.75 2 1.75 2-1 1L0 8l2.5-3Z"/><path d="m13.5 5-1 1 1.75 2-1.75 2 1 1L16 8l-2.5-3Z"/></symbol><symbol id="dx-more" viewBox="0 0 16 16"><path d="M4 8a2 2 0 1 1-4 0 2 2 0 0 1 4 0Z"/><path d="M10 8a2 2 0 1 1-4 0 2 2 0 0 1 4 0Z"/><path d="M14 10a2 2 0 1 0 0-4 2 2 0 0 0 0 4Z"/></symbol><symbol id="dx-no-data" viewBox="0 0 48 48"><path fill-rule="evenodd" clip-rule="evenodd" d="M4 34c0 2.2 1.8 4 4 4h32c2.2 0 4-1.8 4-4V18l-9.452-7.562a2 2 0 0 0-1.25-.438H14.702a2 2 0 0 0-1.25.438L4 18v16Zm28-14h8v14H8V20h8v3a2 2 0 0 0 2 2h12a2 2 0 0 0 2-2v-3Z"/></symbol><symbol id="dx-plus" viewBox="0 0 16 16"><g clip-path="url(#clip0_1_51)"><path fill-rule="evenodd" clip-rule="evenodd" d="M9.6 6.4V0H6.4v6.4H0v3.2h6.4V16h3.2V9.6H16V6.4H9.6Z"/></g><defs><clipPath id="clip0_1_51"><rect width="16" height="16"/></clipPath></defs></symbol><symbol id="dx-progress-bar-error" viewBox="0 0 16 16"><path fill-rule="evenodd" clip-rule="evenodd" d="m13 11.51-1.49 1.489L8 9.489l-3.51 3.51L3 11.509 6.51 8 3 4.489l1.49-1.49L8 6.509 11.51 3 13 4.489l-3.51 3.51 3.51 3.51Z"/></symbol><symbol id="dx-progress-bar-info" viewBox="0 0 16 16"><path fill-rule="evenodd" clip-rule="evenodd" d="M8 0a8 8 0 1 0 0 16A8 8 0 0 0 8 0Zm1 13H7V7h2v6Zm0-8-2-.061V3h2v2Z"/></symbol><symbol id="dx-progress-bar-pause" viewBox="0 0 16 16"><path d="M7 3H5v10h2V3Z"/><path d="M11 3H9v10h2V3Z"/></symbol><symbol id="dx-progress-bar-success" viewBox="0 0 16 16"><path d="m2.4 8 4 4 7.2-7.2-1.128-1.136L6.4 9.736 3.528 6.864 2.4 8Z"/></symbol><symbol id="dx-sc-apt-exception" viewBox="0 0 17 16"><path d="M14.002 8h-4l1.6-1.6c-.6-1.4-2-2.4-3.6-2.4-.7 0-1.4.2-2 .6l5.4 5.4h2.2c-.2.5-.5 1-.8 1.5l1.8 1.8-1.4 1.5-1.9-1.9c-.8.7-2 1.1-3.3 1.1-2.2 0-4.1-1.2-5.1-2.9l-1.9 1.9V8h5l-1.6 1.6c.6 1.4 2 2.4 3.6 2.4.7 0 1.4-.2 2-.6L4.602 6h-2.2c.2-.5.5-1 .8-1.5l-1.9-1.8 1.4-1.5 1.9 1.9c.9-.7 2.1-1.1 3.4-1.1 2.2 0 4.1 1.2 5.1 2.9l1.9-1.9v5h-1Z"/></symbol><symbol id="dx-sc-apt-recurrence" viewBox="0 0 17 16"><path fill-rule="evenodd" clip-rule="evenodd" d="M15.002 8h-5l1.6-1.6c-.6-1.4-2-2.4-3.6-2.4-1.5 0-2.8.8-3.4 2h-2.2c.8-2.3 3-4 5.6-4 2.2 0 4.1 1.2 5.1 2.9l1.9-1.9v5Zm-9 0-1.6 1.6c.6 1.4 2 2.4 3.6 2.4 1.5 0 2.8-.8 3.4-2h2.2c-.8 2.3-3 4-5.6 4-2.2 0-4.1-1.2-5.1-2.9l-1.9 1.9V8h5Z"/></symbol><symbol id="dx-sc-delete" viewBox="0 0 17 16"><path d="M11.002 0c.6 0 1 .4 1 1h3v2h-14V1h3c0-.6.4-1 1-1h6Z"/><path fill-rule="evenodd" clip-rule="evenodd" d="M2.003 14V4h12v10c0 1.1-.9 2-2 2h-8c-1.1 0-2-.9-2-2Z"/></symbol><symbol id="dx-sc-description" viewBox="0 0 16 16"><path d="M1 3v2h14V3H1Zm0 6h14V7H1v2Zm0 4h10v-2H1v2Z"/></symbol><symbol id="dx-sc-edit" viewBox="0 0 17 16"><path d="m13.032 5.978 1.804-1.805c.401-.4 0-.902-.4-1.303l-1.304-1.303c-.4-.4-.902-.802-1.304-.4L10.024 2.97l3.008 3.008Z"/><path d="m4.008 15 8.021-8.02-3.008-3.007L1 11.993V15h3.008Z"/></symbol><symbol id="dx-sc-exception" viewBox="0 0 16 16"><path d="m11.556 8.044 1.51-1.497C12.446 4.346 10.4 2.761 8 2.761c-.533 0-1.066.088-1.51.264L5.066 1.616C5.956 1.264 6.934 1 8 1c2.934 0 5.334 1.761 6.49 4.138L16 3.642v4.402h-4.444Zm2.044 6.78L1.156 2.497 2.4 1.264l12.445 12.327-1.245 1.233ZM3.2 10.157c.8 1.85 2.667 3.17 4.8 3.17.534 0 1.067-.088 1.511-.264l1.334 1.32c-.89.44-1.867.617-2.934.617a7.006 7.006 0 0 1-6.133-3.61L0 13.327V8.925h4.445L3.2 10.157Z"/></symbol><symbol id="dx-sc-expand" viewBox="0 0 16 16"><path fill-rule="evenodd" clip-rule="evenodd" d="M13 4.4 10.4 7H9V5.6L11.6 3H10V1h5v5h-2V4.4ZM7 5.6V7H5.6L3 4.4V6H1V1h5v2H4.4L7 5.6Zm-4 6L5.6 9H7v1.4L4.4 13H6v2H1v-5h2v1.6Zm7 1.4h1.6L9 10.4V9h1.4l2.6 2.6V10h2v5h-5v-2Z"/></symbol><symbol id="dx-sc-label" viewBox="0 0 16 16"><path d="M14.347 1.5H1.654C.738 1.5 0 2.28 0 3.233v9.534C0 13.72.738 14.5 1.654 14.5h12.693c.915 0 1.653-.78 1.653-1.733V3.233c0-.953-.738-1.733-1.653-1.733ZM4 12.5H2v-9h2v9Zm10 0H6v-9h8v9Z"/><path opacity="0.5" d="M14 3.5H6v9h8v-9Z"/></symbol><symbol id="dx-sc-location" viewBox="0 0 16 16"><path d="M8 8a2 2 0 1 0 0-4 2 2 0 0 0 0 4Z"/><path fill-rule="evenodd" clip-rule="evenodd" d="M14 6.56C14 2.576 11.15 0 8 0S2 2.576 2 6.56c0 2.656 2.003 5.8 6 9.44 3.998-3.64 6-6.784 6-9.44Zm-2-.05C12 3.771 10.1 2 8 2S4 3.771 4 6.51C4 8.336 5.335 10.498 8 13c2.665-2.502 4-4.664 4-6.49Z"/></symbol><symbol id="dx-sc-recurrence" viewBox="0 0 16 16"><path d="M16 8h-4.444l1.52-1.496A5.29 5.29 0 0 0 8 2.75c-2.64 0-4.818 1.89-5.244 4.375H.95C1.387 3.669 4.374 1 8.001 1a7.1 7.1 0 0 1 6.461 4.139L16 3.625V8ZM3.165 10.135A5.303 5.303 0 0 0 8 13.25a5.297 5.297 0 0 0 5.005-3.5h1.875C14.09 12.769 11.316 15 8 15a7.095 7.095 0 0 1-6.16-3.561L0 13.25V8.875h4.445l-1.28 1.26Z"/></symbol><symbol id="dx-sc-resource" viewBox="0 0 17 16"><path d="M12.002 10h-3v3h3v-3Z"/><path fill-rule="evenodd" clip-rule="evenodd" d="M3.002 1a1 1 0 1 1 2 0v1h6V1a1 1 0 1 1 2 0v1a2 2 0 0 1 2 2v10a2 2 0 0 1-2 2h-10a2 2 0 0 1-2-2V4a2 2 0 0 1 2-2V1Zm10 13V8h-10v6h10Zm-10-9a1 1 0 0 1 1-1h8a1 1 0 0 1 1 1v1h-10V5Z"/></symbol><symbol id="dx-sc-save" viewBox="0 0 17 16"><path d="M10.002 5h-8V2h8v3Zm-2 9a3 3 0 1 1 0-6 3 3 0 0 1 0 6Zm4-14h-10a2 2 0 0 0-2 2v12a2 2 0 0 0 2 2h12a2 2 0 0 0 2-2V4l-4-4Z"/></symbol><symbol id="dx-sc-settings" viewBox="0 0 17 16"><path d="M8.002 4.8c1.8 0 3.3 1.4 3.3 3.2 0 1.8-1.5 3.2-3.3 3.2-1.8 0-3.3-1.4-3.3-3.2 0-1.8 1.5-3.2 3.3-3.2Zm0 1.6c-.9 0-1.6.7-1.6 1.6 0 .9.7 1.6 1.6 1.6.9 0 1.6-.7 1.6-1.6 0-.9-.7-1.6-1.6-1.6Zm-1.6 9.6c-.2 0-.4-.1-.4-.3l-.3-2.1c-.5-.2-1-.5-1.4-.8l-2 .8c-.2.1-.4 0-.5-.2l-1.6-2.8c-.2-.2-.2-.4 0-.5l1.7-1.3-.1-.8.1-.8-1.7-1.3c-.2-.1-.2-.3-.1-.5l1.6-2.8c.1-.2.3-.2.5-.2l2 .8c.4-.3.9-.6 1.4-.8l.3-2.1c.1-.2.2-.3.5-.3h3.3c.2 0 .4.1.4.3l.3 2.1c.5.2 1 .5 1.4.8l2-.8c.2-.1.4 0 .5.2l1.6 2.8c.1.2.1.4-.1.5l-1.7 1.3.1.8-.1.8 1.7 1.3c.2.1.2.3.1.5l-1.6 2.8c-.1.2-.3.2-.5.2l-2-.8c-.4.3-.9.6-1.4.8l-.3 2.1c0 .2-.2.3-.4.3h-3.3Zm1-14.4-.3 2.1c-1 .2-1.9.7-2.5 1.4l-2-.8-.6 1 1.7 1.2c-.3.9-.3 2 0 2.9l-1.7 1.3.6 1 2-.8c.6.7 1.5 1.2 2.5 1.4l.3 2.1h1.2l.3-2.1c1-.2 1.8-.7 2.5-1.4l2 .8.6-1-1.7-1.2c.3-.9.3-2 0-2.9l1.7-1.3-.6-1-2 .8c-.6-.7-1.5-1.2-2.5-1.4l-.3-2.1h-1.2Z"/></symbol><symbol id="dx-sc-status" viewBox="0 0 16 16"><path d="M14.347 1.5H1.654C.738 1.5 0 2.28 0 3.233v9.534C0 13.72.738 14.5 1.654 14.5h12.693c.915 0 1.653-.78 1.653-1.733V3.233c0-.953-.738-1.733-1.653-1.733ZM4 12.5H2v-9h2v9Zm10 0H6v-9h8v9Z"/><path opacity="0.5" d="M4 3.5H2v9h2v-9Z"/></symbol><symbol id="dx-sc-time" viewBox="0 0 17 16"><path d="M7.003 4a1 1 0 0 1 2 0v3h2a1 1 0 1 1 0 2h-3a1 1 0 0 1-1-1V4Z"/><path fill-rule="evenodd" clip-rule="evenodd" d="M8.002 16a8 8 0 1 0 0-16 8 8 0 0 0 0 16Zm0-2a6 6 0 1 0 0-12 6 6 0 0 0 0 12Z"/></symbol><symbol id="dx-sc-timezone" viewBox="0 0 11 11"><path fill-rule="evenodd" clip-rule="evenodd" d="M5.5 11a5.5 5.5 0 1 0 0-11 5.5 5.5 0 0 0 0 11Zm4.068-6.188A4.128 4.128 0 0 0 7.6 1.95c.336.793.561 1.78.629 2.864h1.339Zm0 1.375A4.128 4.128 0 0 1 7.6 9.052c.336-.793.561-1.78.629-2.864h1.339ZM6.851 4.813c-.076-1.054-.32-1.953-.636-2.586-.192-.383-.384-.619-.533-.744a.586.586 0 0 0-.175-.106.036.036 0 0 0-.014 0 .586.586 0 0 0-.175.106c-.149.125-.341.36-.533.744-.316.633-.56 1.532-.636 2.587h2.702ZM4.149 6.188h2.702c-.076 1.055-.32 1.954-.636 2.587-.192.383-.384.619-.533.744a.586.586 0 0 1-.175.106.036.036 0 0 1-.014 0 .586.586 0 0 1-.175-.106c-.149-.125-.341-.36-.533-.744-.316-.633-.56-1.532-.636-2.586ZM2.771 4.813c.068-1.084.293-2.07.629-2.863a4.128 4.128 0 0 0-1.968 2.864h1.34ZM1.432 6.188h1.34c.067 1.085.292 2.07.628 2.864a4.128 4.128 0 0 1-1.968-2.864Z"/></symbol><symbol id="dx-search" viewBox="0 0 16 16"><path fill-rule="evenodd" clip-rule="evenodd" d="M10.508 11.927a6.02 6.02 0 1 1 1.419-1.419l3.78 3.78a1.003 1.003 0 1 1-1.42 1.418l-3.779-3.779Zm.526-4.907a4.013 4.013 0 1 1-8.027 0 4.013 4.013 0 0 1 8.027 0Z"/></symbol><symbol id="dx-size-grip" viewBox="0 0 12 12"><path fill-rule="evenodd" clip-rule="evenodd" d="M10 9V7h2v2h-2Zm0-8h2v2h-2V1Zm-3 9h2v2H7v-2Zm0-6h2v2H7V4ZM4 7h2v2H4V7Zm-3 3h2v2H1v-2Z"/></symbol><symbol id="dx-toast-close" viewBox="0 0 16 16"><path d="m15 13.501-1.5 1.5-5.5-5.5-5.5 5.5-1.5-1.5 5.5-5.5-5.5-5.5 1.5-1.5 5.5 5.5 5.5-5.5 1.5 1.5-5.5 5.5 5.5 5.5Z"/></symbol><symbol id="dx-toast-danger" viewBox="0 0 16 16"><path fill-rule="evenodd" clip-rule="evenodd" d="M8 16A8 8 0 1 0 8 0a8 8 0 0 0 0 16ZM5.707 4.293a1 1 0 0 0-1.414 1.414L6.586 8l-2.293 2.293a1 1 0 1 0 1.414 1.414L8 9.414l2.293 2.293a1 1 0 0 0 1.414-1.414L9.414 8l2.293-2.293a1 1 0 0 0-1.414-1.414L8 6.586 5.707 4.293Z"/></symbol><symbol id="dx-toast-info" viewBox="0 0 16 16"><path fill-rule="evenodd" clip-rule="evenodd" d="M8 0a8 8 0 1 0 0 16A8 8 0 0 0 8 0Zm1 13H7V7h2v6Zm0-8-2-.061V3h2v2Z"/></symbol><symbol id="dx-toast-primary" viewBox="0 0 16 16"><path fill-rule="evenodd" clip-rule="evenodd" d="M8 16A8 8 0 1 0 8 0a8 8 0 0 0 0 16ZM8 3a1 1 0 0 0-1 1v4a1 1 0 0 0 1 1h3a1 1 0 1 0 0-2H9V4a1 1 0 0 0-1-1Z"/></symbol><symbol id="dx-toast-success" viewBox="0 0 16 16"><path fill-rule="evenodd" clip-rule="evenodd" d="M8 16A8 8 0 1 0 8 0a8 8 0 0 0 0 16ZM2.5 8.243l1.414-1.415 2.829 2.829L12.399 4l1.415 1.414-7.071 7.071L2.5 8.243Z"/></symbol><symbol id="dx-toast-warning" viewBox="0 0 16 16"><path fill-rule="evenodd" clip-rule="evenodd" d="M8 16A8 8 0 1 1 8 0a8 8 0 0 1 0 16ZM9 2H7v8h2V2Zm0 10H7v2h2v-2Z"/></symbol><symbol id="dx-uc-continue" viewBox="0 0 16 16"><path d="M5 3v10l7-5-7-5Z"/></symbol><symbol id="dx-uc-file" viewBox="0 0 16 16"><g clip-path="url(#clip0_885_18)"><path d="m9 3 3 3H9V3Z"/><path fill-rule="evenodd" clip-rule="evenodd" d="M3 16h10c1.1 0 2-.9 2-2V4l-4-4H3C1.9 0 1 .9 1 2v12c0 1.1.9 2 2 2Zm7-14 3 3v9H3V2h7Z"/></g><defs><clipPath id="clip0_885_18"><rect width="16" height="16"/></clipPath></defs></symbol><symbol id="dx-uc-pause" viewBox="0 0 16 16"><path d="M7 3H5v10h2V3Z"/><path d="M11 3H9v10h2V3Z"/></symbol><symbol id="dx-uc-reload" viewBox="0 0 17 16"><g clip-path="url(#clip0_102_111)"><path d="M16.003 8v6l-2.2-2.2c-1.2 1.9-3.4 3.2-5.8 3.2-3.9 0-7-3.1-7-7s3.1-7 7-7c3.2 0 5.8 2.1 6.7 5h-2.1c-.8-1.8-2.6-3-4.6-3-2.8 0-5 2.2-5 5s2.2 5 5 5c1.9 0 3.5-1.1 4.4-2.6l-2.4-2.4h6Z"/></g><defs><clipPath id="clip0_102_111"><rect width="16" height="16" transform="translate(0.00250244)"/></clipPath></defs></symbol><symbol id="dx-uc-upload" viewBox="0 0 16 16"><path d="M2.46 5.46 8 0l5.55 5.45-1.42 1.43L9 3.75V12H7V3.75L3.88 6.88 2.46 5.46Z"/><path d="M3 12H1v2a2 2 0 0 0 2 2h10c1.11 0 2-.89 2-2v-2h-2v2H3v-2Z"/></symbol><symbol id="dx-validation-success" viewBox="0 0 16 16"><path d="m2.4 8 4 4 7.2-7.2-1.128-1.136L6.4 9.736 3.528 6.864 2.4 8Z"/></symbol><symbol id="dx-validation-warning" viewBox="0 0 16 16"><path fill-rule="evenodd" clip-rule="evenodd" d="M8 16A8 8 0 1 1 8 0a8 8 0 0 1 0 16ZM9 2H7v8h2V2Zm0 10H7v2h2v-2Z"/></symbol></svg>